Coordinates
version=1
nRows=54
nColumns=12
inDegrees=yes

Units are S.I. units (second, meters, Newtons, ...)
Angles are in degrees

endheader
time	SC_y	SC_z	SC_x	AC_y	AC_z	AC_x	GH_y	GH_z	GH_yy	EL_x	PS_y
       0.0              -16.92          28.59          4.632          32.15         -3.408         -18.78          58.81          12.54          133.7          92.92          74.65
    0.0391              -16.93          28.59          4.643          32.15         -3.407         -18.78          58.77          12.54          133.7          92.91          74.65
   0.07821              -16.94          28.58          4.653          32.15         -3.405         -18.78          58.74          12.53          133.6          92.91          74.65
    0.1173              -16.94          28.58          4.665          32.15         -3.404         -18.77           58.7          12.53          133.6           92.9          74.65
    0.1564              -16.95          28.57          4.677          32.15         -3.402         -18.77          58.65          12.52          133.6           92.9          74.65
    0.1955              -16.96          28.57           4.69          32.15           -3.4         -18.77          58.61          12.52          133.5           92.9          74.65
    0.2346              -16.97          28.56          4.703          32.15         -3.398         -18.77          58.56          12.51          133.5          92.89          74.65
    0.2737              -16.98          28.55          4.718          32.16         -3.396         -18.77          58.51          12.51          133.4          92.89          74.65
    0.3128              -16.99          28.55          4.734          32.16         -3.394         -18.76          58.46           12.5          133.3          92.88          74.65
    0.3519               -17.0          28.54          4.751          32.16         -3.391         -18.76           58.4          12.49          133.3          92.88          74.65
     0.391              -17.01          28.53          4.769          32.16         -3.389         -18.76          58.34          12.48          133.2          92.87          74.66
    0.4301              -17.02          28.52          4.789          32.16         -3.386         -18.75          58.27          12.47          133.1          92.86          74.66
    0.4693              -17.03          28.52           4.81          32.16         -3.383         -18.75           58.2          12.47          133.1          92.86          74.66
    0.5084              -17.05          28.51          4.833          32.17          -3.38         -18.75          58.12          12.45          133.0          92.85          74.66
    0.5475              -17.06           28.5          4.858          32.17         -3.376         -18.74          58.04          12.44          132.9          92.84          74.66
    0.5866              -17.08          28.48          4.884          32.17         -3.373         -18.74          57.95          12.43          132.8          92.83          74.66
    0.6257               -17.1          28.47          4.913          32.17         -3.368         -18.74          57.85          12.42          132.7          92.82          74.66
    0.6648              -17.12          28.46          4.945          32.18         -3.364         -18.73          57.74           12.4          132.6          92.81          74.66
    0.7039              -17.14          28.44           4.98          32.18         -3.359         -18.73          57.62          12.39          132.4           92.8          74.66
     0.743              -17.16          28.43          5.018          32.19         -3.354         -18.72          57.49          12.37          132.3          92.79          74.67
    0.7821              -17.19          28.41          5.059          32.19         -3.348         -18.71          57.35          12.35          132.1          92.78          74.67
    0.8212              -17.22          28.39          5.105          32.19         -3.341         -18.71           57.2          12.33          132.0          92.76          74.67
    0.8603              -17.25          28.37          5.156           32.2         -3.334          -18.7          57.02          12.31          131.8          92.74          74.67
    0.8994              -17.28          28.34          5.212           32.2         -3.326         -18.69          56.83          12.29          131.6          92.73          74.67
    0.9385              -17.32          28.32          5.274          32.21         -3.317         -18.68          56.62          12.26          131.3          92.71          74.68
    0.9776              -17.36          28.29          5.344          32.22         -3.307         -18.67          56.38          12.23          131.1          92.68          74.68
     1.017              -17.41          28.26          5.422          32.22         -3.296         -18.66          56.12          12.19          130.8          92.66          74.68
     1.056              -17.47          28.22          5.509          32.23         -3.284         -18.64          55.82          12.15          130.4          92.63          74.69
     1.095              -17.53          28.18          5.609          32.24          -3.27         -18.63          55.48          12.11          130.1           92.6          74.69
     1.134               -17.6          28.13          5.721          32.25         -3.254         -18.61           55.1          12.06          129.7          92.56           74.7
     1.173              -17.68          28.07          5.849          32.27         -3.236         -18.59          54.66           12.0          129.2          92.52           74.7
     1.212              -17.77          28.01          5.997          32.28         -3.215         -18.57          54.16          11.94          128.6          92.47          74.71
     1.251              -17.88          27.94          6.167           32.3         -3.191         -18.54          53.58          11.86          128.0          92.41          74.72
      1.29               -18.0          27.85          6.365          32.32         -3.163         -18.51          52.91          11.77          127.3          92.35          74.72
      1.33              -18.14          27.76          6.596          32.34          -3.13         -18.47          52.12          11.67          126.4          92.27          74.73
     1.369              -18.31          27.64          6.868          32.37         -3.091         -18.43          51.19          11.55          125.4          92.18          74.75
     1.408              -18.52           27.5          7.192           32.4         -3.045         -18.38          50.09           11.4          124.2          92.08          74.76
     1.447              -18.76          27.34          7.581          32.44          -2.99         -18.32          48.76          11.23          122.7          91.95          74.78
     1.486              -19.05          27.14          8.051          32.48         -2.924         -18.25          47.16          11.02          121.0           91.8           74.8
     1.525              -19.41          26.89          8.625          32.54         -2.842         -18.16          45.21          10.77          118.8          91.61          74.82
     1.564              -19.85          26.59          9.333          32.61         -2.742         -18.05          42.79          10.45          116.2          91.38          74.85
     1.603               -20.4          26.21          10.22           32.7         -2.617         -17.91          39.78          10.06          112.9          91.09          74.89
     1.642              -21.09          25.74          11.33          32.81         -2.459         -17.74          35.99           9.56          108.7          90.73          74.94
     1.681              -21.97          25.14          12.74          32.95         -2.258         -17.52          31.17          8.929          103.5          90.26           75.0
     1.721               -23.1          24.37          14.55          33.13         -2.002         -17.23          25.01          8.123          96.72          89.67          75.08
      1.76              -24.54          23.38          16.88          33.36         -1.672         -16.87          17.09          7.087          88.06          88.91          75.18
     1.799              -26.39          22.11          19.85          33.65         -1.252         -16.41          6.981          5.764          76.99          87.94          75.31
     1.838              -28.71          20.52          23.58          34.02        -0.7225         -15.83         -5.731          4.101          63.07          86.72          75.47
     1.877              -31.54          18.59          28.13          34.47        -0.0778         -15.12         -21.22          2.075          46.12          85.23          75.67
     1.916              -34.82          16.34           33.4          34.99         0.6695          -14.3         -39.18        -0.2746          26.46          83.51          75.89
     1.955              -38.37          13.91          39.11          35.55          1.479         -13.41         -58.62         -2.818          5.174          81.64          76.14
     1.994              -41.93          11.48          44.81          36.11          2.288         -12.52         -78.07         -5.362         -16.11          79.78          76.39
     2.033              -45.21          9.233          50.09          36.63          3.035          -11.7         -96.03         -7.711         -35.77          78.05          76.62
     2.073              -48.04          7.296          54.63          37.08           3.68         -10.99         -111.5         -9.738         -52.73          76.57          76.81
